<?xml version="1.0" encoding="UTF-8" standalone="no"?>
<!-- Created with Inkscape (http://www.inkscape.org/) -->
<svg
   xmlns:dc="http://purl.org/dc/elements/1.1/"
   xmlns:cc="http://creativecommons.org/ns#"
   xmlns:rdf="http://www.w3.org/1999/02/22-rdf-syntax-ns#"
   xmlns:svg="http://www.w3.org/2000/svg"
   xmlns="http://www.w3.org/2000/svg"
   xmlns:sodipodi="http://sodipodi.sourceforge.net/DTD/sodipodi-0.dtd"
   xmlns:inkscape="http://www.inkscape.org/namespaces/inkscape"
   width="32px"
   height="32px"
   id="svg2429"
   sodipodi:version="0.32"
   inkscape:version="0.46"
   sodipodi:docname="apple.svg"
   inkscape:output_extension="org.inkscape.output.svg.inkscape">
  <defs
     id="defs2431">
    <linearGradient
       id="linearGradient3238">
      <stop
         style="stop-color:#76e909;stop-opacity:1;"
         offset="0"
         id="stop3240" />
      <stop
         style="stop-color:#3d7904;stop-opacity:1"
         offset="1"
         id="stop3242" />
    </linearGradient>
    <inkscape:perspective
       sodipodi:type="inkscape:persp3d"
       inkscape:vp_x="0 : 16 : 1"
       inkscape:vp_y="0 : 1000 : 0"
       inkscape:vp_z="32 : 16 : 1"
       inkscape:persp3d-origin="16 : 10.666667 : 1"
       id="perspective2437" />
  </defs>
  <sodipodi:namedview
     id="base"
     pagecolor="#ffffff"
     bordercolor="#666666"
     borderopacity="1.0"
     inkscape:pageopacity="0.0"
     inkscape:pageshadow="2"
     inkscape:zoom="7.9180417"
     inkscape:cx="15.155375"
     inkscape:cy="11.571625"
     inkscape:current-layer="g3246"
     showgrid="true"
     inkscape:grid-bbox="true"
     inkscape:document-units="px"
     inkscape:window-width="1278"
     inkscape:window-height="1008"
     inkscape:window-x="0"
     inkscape:window-y="14" />
  <metadata
     id="metadata2434">
    <rdf:RDF>
      <cc:Work
         rdf:about="">
        <dc:format>image/svg+xml</dc:format>
        <dc:type
           rdf:resource="http://purl.org/dc/dcmitype/StillImage" />
      </cc:Work>
    </rdf:RDF>
  </metadata>
  <g
     id="layer1"
     inkscape:label="Layer 1"
     inkscape:groupmode="layer">
    <g
       id="g3246"
       transform="matrix(0.6102089,0,0,0.5523403,-57.800699,-44.133499)">
      <path
         id="path3231"
         d="M 128.70719,93.295548 C 127.78611,93.351237 126.65534,93.399517 126.13437,94.281545 C 125.32146,95.451468 125.19592,96.89684 124.77007,98.216792 C 124.42488,99.688236 124.50905,101.21753 124.24572,102.69561 C 123.90045,104.27893 122.95502,105.77642 121.47622,106.56006 C 120.95505,107.03358 120.01076,106.91906 119.98188,106.11265 C 119.81677,104.71356 119.731,103.30095 119.60735,101.89535 C 119.4705,100.39547 119.47768,98.79584 118.63678,97.475287 C 118.08767,96.411934 117.26494,95.340627 116.06832,94.956442 C 114.83878,94.743849 113.62027,95.145422 112.41199,95.296545 C 110.11245,95.762548 107.82471,96.368111 105.67494,97.306767 C 103.75773,98.403414 101.91071,99.827387 100.93787,101.83017 C 100.01076,103.57521 99.569052,105.52951 99.36004,107.47404 C 99.043703,110.87872 99.441145,114.3374 100.47121,117.60306 C 101.70103,121.74407 104.27973,125.41291 107.40725,128.41259 C 109.2551,130.17025 111.51971,131.47008 113.88226,132.44939 C 116.3198,133.42206 118.96153,133.89285 121.59231,133.83527 C 126.42476,133.65959 131.19961,131.7912 134.75235,128.57168 C 137.25065,126.33668 139.17988,123.54139 140.65309,120.57575 C 141.93436,117.8424 142.77328,114.89979 142.93721,111.89069 C 143.28917,108.47159 142.93371,104.9768 141.8914,101.69404 C 141.05486,99.319606 139.84505,96.909095 137.64928,95.466891 C 136.39017,94.474667 134.8886,93.75125 133.26232,93.608925 C 131.75461,93.418932 130.22871,93.231706 128.70719,93.295548 z"
         style="fill:#76e909;fill-opacity:1;fill-rule:nonzero;stroke:#347d00;stroke-width:7.20100737;stroke-linecap:butt;stroke-linejoin:miter;marker:none;marker-start:none;marker-mid:none;marker-end:none;stroke-miterlimit:4;stroke-dashoffset:0;stroke-opacity:1;visibility:visible;display:inline;overflow:visible;enable-background:accumulate" />
      <path
         id="path3236"
         d="M 102.06389,84.27949 C 102.06389,84.27949 119.48504,100.57189 118.17845,106.36475 C 116.87187,112.1576 122.09821,109.98527 122.09821,109.98527 C 122.09821,109.98527 124.27584,88.624129 120.35608,86.089756 C 116.43634,83.555383 111.20999,79.93485 111.20999,79.93485 L 102.06389,84.27949 z"
         style="opacity:1;fill:#4d1903;fill-opacity:1;fill-rule:nonzero;stroke:none;stroke-width:6.98600006;stroke-linecap:butt;stroke-linejoin:miter;marker:none;marker-start:none;marker-mid:none;marker-end:none;stroke-miterlimit:4;stroke-dasharray:none;stroke-dashoffset:0;stroke-opacity:1;visibility:visible;display:inline;overflow:visible;enable-background:accumulate" />
    </g>
  </g>
</svg>
