<?xml version="1.0" encoding="UTF-8" standalone="no"?>
<!-- Created with Inkscape (http://www.inkscape.org/) -->
<svg
   xmlns:dc="http://purl.org/dc/elements/1.1/"
   xmlns:cc="http://creativecommons.org/ns#"
   xmlns:rdf="http://www.w3.org/1999/02/22-rdf-syntax-ns#"
   xmlns:svg="http://www.w3.org/2000/svg"
   xmlns="http://www.w3.org/2000/svg"
   xmlns:sodipodi="http://sodipodi.sourceforge.net/DTD/sodipodi-0.dtd"
   xmlns:inkscape="http://www.inkscape.org/namespaces/inkscape"
   width="32px"
   height="32px"
   id="svg2429"
   sodipodi:version="0.32"
   inkscape:version="0.46"
   sodipodi:docname="rock.svg"
   inkscape:output_extension="org.inkscape.output.svg.inkscape">
  <defs
     id="defs2431">
    <linearGradient
       id="linearGradient3163">
      <stop
         style="stop-color:#918378;stop-opacity:1"
         offset="0"
         id="stop3165" />
      <stop
         style="stop-color:#040404;stop-opacity:1"
         offset="1"
         id="stop3167" />
    </linearGradient>
    <linearGradient
       id="linearGradient3238">
      <stop
         style="stop-color:#76e909;stop-opacity:1;"
         offset="0"
         id="stop3240" />
      <stop
         style="stop-color:#3d7904;stop-opacity:1"
         offset="1"
         id="stop3242" />
    </linearGradient>
    <inkscape:perspective
       sodipodi:type="inkscape:persp3d"
       inkscape:vp_x="0 : 16 : 1"
       inkscape:vp_y="0 : 1000 : 0"
       inkscape:vp_z="32 : 16 : 1"
       inkscape:persp3d-origin="16 : 10.666667 : 1"
       id="perspective2437" />
  </defs>
  <sodipodi:namedview
     id="base"
     pagecolor="#ffffff"
     bordercolor="#666666"
     borderopacity="1.0"
     inkscape:pageopacity="0.0"
     inkscape:pageshadow="2"
     inkscape:zoom="7.9180417"
     inkscape:cx="36.287912"
     inkscape:cy="1.6971534"
     inkscape:current-layer="svg2429"
     showgrid="true"
     inkscape:grid-bbox="true"
     inkscape:document-units="px"
     inkscape:window-width="789"
     inkscape:window-height="1008"
     inkscape:window-x="0"
     inkscape:window-y="14" />
  <metadata
     id="metadata2434">
    <rdf:RDF>
      <cc:Work
         rdf:about="">
        <dc:format>image/svg+xml</dc:format>
        <dc:type
           rdf:resource="http://purl.org/dc/dcmitype/StillImage" />
      </cc:Work>
    </rdf:RDF>
  </metadata>
  <g
     id="layer1"
     inkscape:label="Layer 1"
     inkscape:groupmode="layer">
    <rect
       style="fill:#b3b3b3;stroke:#b3b3b3;stroke-width:1.48727190000000009;stroke-miterlimit:4;stroke-dasharray:none;stroke-opacity:1;opacity:0"
       id="rect3621"
       width="30.54822"
       height="30.54822"
       x="0.76521587"
       y="0.81286865" />
    <path
       style="fill:#666666;fill-rule:evenodd;stroke:#000000;stroke-width:4.94235134;stroke-linecap:butt;stroke-linejoin:miter;stroke-miterlimit:4;stroke-dasharray:none;stroke-opacity:1"
       d="M 2.7666035,21.327268 C 2.4522357,23.095064 3.9071209,23.510666 5.2024577,24.301481 C 6.105686,24.852904 7.0374139,24.975598 7.8818948,25.491161 C 9.0593938,26.21003 9.9805672,26.411994 11.048503,26.086003 C 12.236547,25.723352 12.922228,25.514044 13.971534,25.19374 C 15.066859,24.859386 15.734285,24.598898 17.138142,24.598898 C 18.427856,24.598898 19.549666,24.591471 20.548343,24.896324 C 21.621307,25.223847 22.877667,25.151905 23.714951,24.896324 C 24.608383,24.623595 25.787148,24.22607 26.637976,23.706635 C 27.714872,23.049188 28.124095,22.456857 28.586659,21.327268 C 29.177944,19.883335 29.317413,19.427698 29.317413,17.4608 C 29.317413,15.514205 29.092872,15.104678 28.343071,14.18917 C 27.529785,13.196135 27.031862,12.839704 25.907222,11.809801 C 25.080985,11.05317 24.34446,10.558308 23.471363,10.025276 C 22.417962,9.3821666 21.489693,7.9874758 20.791926,7.3484876 C 19.721604,6.3683348 17.710545,6.1848193 16.650976,5.8613878 C 15.462029,5.4984533 14.086913,5.5639619 12.753608,5.5639619 C 11.779996,5.5639619 11.217702,7.2327377 10.804925,8.2407554 C 10.392456,9.2480025 9.645448,10.477374 9.3434073,11.21496 C 8.9023282,12.292081 8.0919306,12.486583 7.6383118,13.594328 C 7.1707863,14.736037 6.61128,15.145763 5.9332115,15.973695 C 5.1889953,16.882399 4.6118243,17.289708 3.9845282,18.055636 C 3.3601303,18.818046 3.1730293,20.086632 2.7666035,21.327268 z"
       id="path3623" />
  </g>
</svg>
