<?xml version="1.0" encoding="UTF-8" standalone="no"?>
<!-- Created with Inkscape (http://www.inkscape.org/) -->
<svg
   xmlns:dc="http://purl.org/dc/elements/1.1/"
   xmlns:cc="http://creativecommons.org/ns#"
   xmlns:rdf="http://www.w3.org/1999/02/22-rdf-syntax-ns#"
   xmlns:svg="http://www.w3.org/2000/svg"
   xmlns="http://www.w3.org/2000/svg"
   xmlns:xlink="http://www.w3.org/1999/xlink"
   xmlns:sodipodi="http://sodipodi.sourceforge.net/DTD/sodipodi-0.dtd"
   xmlns:inkscape="http://www.inkscape.org/namespaces/inkscape"
   width="32px"
   height="32px"
   id="svg2429"
   sodipodi:version="0.32"
   inkscape:version="0.46"
   sodipodi:docname="teleport.svg"
   inkscape:output_extension="org.inkscape.output.svg.inkscape">
  <defs
     id="defs2431">
    <linearGradient
       id="linearGradient3163">
      <stop
         style="stop-color:#918378;stop-opacity:1"
         offset="0"
         id="stop3165" />
      <stop
         style="stop-color:#040404;stop-opacity:1"
         offset="1"
         id="stop3167" />
    </linearGradient>
    <linearGradient
       id="linearGradient3238">
      <stop
         style="stop-color:#76e909;stop-opacity:1;"
         offset="0"
         id="stop3240" />
      <stop
         style="stop-color:#3d7904;stop-opacity:1"
         offset="1"
         id="stop3242" />
    </linearGradient>
    <inkscape:perspective
       sodipodi:type="inkscape:persp3d"
       inkscape:vp_x="0 : 16 : 1"
       inkscape:vp_y="0 : 1000 : 0"
       inkscape:vp_z="32 : 16 : 1"
       inkscape:persp3d-origin="16 : 10.666667 : 1"
       id="perspective2437" />
  </defs>
  <sodipodi:namedview
     id="base"
     pagecolor="#ffffff"
     bordercolor="#666666"
     borderopacity="1.0"
     inkscape:pageopacity="0.0"
     inkscape:pageshadow="2"
     inkscape:zoom="7.9180417"
     inkscape:cx="14.965242"
     inkscape:cy="9.8089617"
     inkscape:current-layer="layer1"
     showgrid="true"
     inkscape:grid-bbox="true"
     inkscape:document-units="px"
     inkscape:window-width="789"
     inkscape:window-height="1008"
     inkscape:window-x="0"
     inkscape:window-y="14" />
  <metadata
     id="metadata2434">
    <rdf:RDF>
      <cc:Work
         rdf:about="">
        <dc:format>image/svg+xml</dc:format>
        <dc:type
           rdf:resource="http://purl.org/dc/dcmitype/StillImage" />
      </cc:Work>
    </rdf:RDF>
  </metadata>
  <g
     id="layer1"
     inkscape:label="Layer 1"
     inkscape:groupmode="layer">
    <g
       id="g3246"
       transform="matrix(0.6102089,0,0,0.5523403,-57.800699,-44.133499)">
      <use
         x="0"
         y="0"
         xlink:href="#use3181"
         id="use3183"
         transform="matrix(1.638783,0,0,1.8104781,129.55378,-66.559436)"
         width="744.09448"
         height="1052.3622" />
      <use
         x="0"
         y="0"
         xlink:href="#use3181"
         id="use3358"
         transform="matrix(1.638783,0,0,1.8104781,105.40626,-78.36219)"
         width="744.09448"
         height="1052.3622" />
    </g>
    <use
       x="0"
       y="0"
       xlink:href="#use3181"
       id="use3360"
       transform="translate(11.788028,-81.700687)"
       width="744.09448"
       height="1052.3622" />
    <use
       x="0"
       y="0"
       xlink:href="#use3181"
       id="use3362"
       transform="translate(11.877331,-81.432778)"
       width="744.09448"
       height="1052.3622" />
    <use
       x="0"
       y="0"
       xlink:href="#use3181"
       id="use3364"
       transform="translate(7.8586851,-87.148185)"
       width="744.09448"
       height="1052.3622" />
    <use
       x="0"
       y="0"
       xlink:href="#use3181"
       id="use3366"
       transform="translate(5.8940138,-92.417076)"
       width="744.09448"
       height="1052.3622" />
    <use
       x="0"
       y="0"
       xlink:href="#use3181"
       id="use3368"
       transform="translate(20.182532,-76.163886)"
       width="744.09448"
       height="1052.3622" />
    <g
       id="g5950"
       transform="matrix(0.8689956,0,0,0.8689956,2.0764032,2.0991912)">
      <path
         transform="matrix(2.8625,0,0,2.8625,-29.701159,-34.363333)"
         sodipodi:type="arc"
         style="opacity:0.96979867;fill:#6896d1;fill-opacity:1;fill-rule:nonzero;stroke:none;stroke-width:3.55908275;stroke-linecap:butt;stroke-linejoin:miter;marker:none;marker-start:none;marker-mid:none;marker-end:none;stroke-miterlimit:4;stroke-dasharray:none;stroke-dashoffset:0;stroke-opacity:1;visibility:visible;display:inline;overflow:visible;enable-background:accumulate"
         id="path5948"
         sodipodi:cx="15.913026"
         sodipodi:cy="17.602501"
         sodipodi:rx="5.051754"
         sodipodi:ry="5.051754"
         d="M 20.96478,17.602501 A 5.051754,5.051754 0 1 1 10.861272,17.602501 A 5.051754,5.051754 0 1 1 20.96478,17.602501 z" />
      <path
         transform="matrix(2.062251,0,0,2.062251,-16.966777,-20.276949)"
         sodipodi:type="arc"
         style="opacity:0.96979867;fill:#2c599a;fill-opacity:1;fill-rule:nonzero;stroke:none;stroke-width:2.99278688;stroke-linecap:butt;stroke-linejoin:miter;marker:none;marker-start:none;marker-mid:none;marker-end:none;stroke-miterlimit:4;stroke-dasharray:none;stroke-dashoffset:0;stroke-opacity:1;visibility:visible;display:inline;overflow:visible;enable-background:accumulate"
         id="path5944"
         sodipodi:cx="15.913026"
         sodipodi:cy="17.602501"
         sodipodi:rx="5.051754"
         sodipodi:ry="5.051754"
         d="M 20.96478,17.602501 A 5.051754,5.051754 0 1 1 10.861272,17.602501 A 5.051754,5.051754 0 1 1 20.96478,17.602501 z" />
      <path
         transform="matrix(1.0504588,0,0,1.0504588,-0.8660978,-2.4668728)"
         d="M 20.96478,17.602501 A 5.051754,5.051754 0 1 1 10.861272,17.602501 A 5.051754,5.051754 0 1 1 20.96478,17.602501 z"
         sodipodi:ry="5.051754"
         sodipodi:rx="5.051754"
         sodipodi:cy="17.602501"
         sodipodi:cx="15.913026"
         id="path5942"
         style="opacity:0.96979867;fill:#1f4579;fill-opacity:1;fill-rule:nonzero;stroke:none;stroke-width:4.56400013;stroke-linecap:butt;stroke-linejoin:miter;marker:none;marker-start:none;marker-mid:none;marker-end:none;stroke-miterlimit:4;stroke-dasharray:none;stroke-dashoffset:0;stroke-opacity:1;visibility:visible;display:inline;overflow:visible;enable-background:accumulate"
         sodipodi:type="arc" />
    </g>
    <g
       transform="matrix(0.4488334,0,0,0.4488334,18.530845,-0.6746547)"
       id="g5968">
      <path
         transform="matrix(2.8625,0,0,2.8625,-29.701159,-34.363333)"
         sodipodi:type="arc"
         style="opacity:0.96979867;fill:#6896d1;fill-opacity:1;fill-rule:nonzero;stroke:none;stroke-width:3.55908275;stroke-linecap:butt;stroke-linejoin:miter;marker:none;marker-start:none;marker-mid:none;marker-end:none;stroke-miterlimit:4;stroke-dasharray:none;stroke-dashoffset:0;stroke-opacity:1;visibility:visible;display:inline;overflow:visible;enable-background:accumulate"
         id="path5970"
         sodipodi:cx="15.913026"
         sodipodi:cy="17.602501"
         sodipodi:rx="5.051754"
         sodipodi:ry="5.051754"
         d="M 20.96478,17.602501 A 5.051754,5.051754 0 1 1 10.861272,17.602501 A 5.051754,5.051754 0 1 1 20.96478,17.602501 z" />
      <path
         d="M 20.96478,17.602501 A 5.051754,5.051754 0 1 1 10.861272,17.602501 A 5.051754,5.051754 0 1 1 20.96478,17.602501 z"
         sodipodi:ry="5.051754"
         sodipodi:rx="5.051754"
         sodipodi:cy="17.602501"
         sodipodi:cx="15.913026"
         id="path5972"
         style="opacity:0.96979867;fill:#4c7dbc;fill-opacity:1;fill-rule:nonzero;stroke:none;stroke-width:4.56400013;stroke-linecap:butt;stroke-linejoin:miter;marker:none;marker-start:none;marker-mid:none;marker-end:none;stroke-miterlimit:4;stroke-dasharray:none;stroke-dashoffset:0;stroke-opacity:1;visibility:visible;display:inline;overflow:visible;enable-background:accumulate"
         sodipodi:type="arc"
         transform="matrix(1.9854119,0,0,1.9854119,-15.744034,-18.924388)" />
      <path
         transform="matrix(1.0504588,0,0,1.0504588,-0.8660978,-2.4668728)"
         d="M 20.96478,17.602501 A 5.051754,5.051754 0 1 1 10.861272,17.602501 A 5.051754,5.051754 0 1 1 20.96478,17.602501 z"
         sodipodi:ry="5.051754"
         sodipodi:rx="5.051754"
         sodipodi:cy="17.602501"
         sodipodi:cx="15.913026"
         id="path5976"
         style="opacity:0.96979867;fill:#1f4579;fill-opacity:1;fill-rule:nonzero;stroke:none;stroke-width:4.56400013;stroke-linecap:butt;stroke-linejoin:miter;marker:none;marker-start:none;marker-mid:none;marker-end:none;stroke-miterlimit:4;stroke-dasharray:none;stroke-dashoffset:0;stroke-opacity:1;visibility:visible;display:inline;overflow:visible;enable-background:accumulate"
         sodipodi:type="arc" />
    </g>
    <g
       transform="matrix(0.4488334,0,0,0.4488334,-0.6552533,18.363115)"
       id="g5988">
      <path
         transform="matrix(2.8625,0,0,2.8625,-29.701159,-34.363333)"
         sodipodi:type="arc"
         style="opacity:0.96979867;fill:#6896d1;fill-opacity:1;fill-rule:nonzero;stroke:none;stroke-width:3.55908275;stroke-linecap:butt;stroke-linejoin:miter;marker:none;marker-start:none;marker-mid:none;marker-end:none;stroke-miterlimit:4;stroke-dasharray:none;stroke-dashoffset:0;stroke-opacity:1;visibility:visible;display:inline;overflow:visible;enable-background:accumulate"
         id="path5990"
         sodipodi:cx="15.913026"
         sodipodi:cy="17.602501"
         sodipodi:rx="5.051754"
         sodipodi:ry="5.051754"
         d="M 20.96478,17.602501 A 5.051754,5.051754 0 1 1 10.861272,17.602501 A 5.051754,5.051754 0 1 1 20.96478,17.602501 z" />
      <path
         d="M 20.96478,17.602501 A 5.051754,5.051754 0 1 1 10.861272,17.602501 A 5.051754,5.051754 0 1 1 20.96478,17.602501 z"
         sodipodi:ry="5.051754"
         sodipodi:rx="5.051754"
         sodipodi:cy="17.602501"
         sodipodi:cx="15.913026"
         id="path5992"
         style="opacity:0.96979867;fill:#4c7dbc;fill-opacity:1;fill-rule:nonzero;stroke:none;stroke-width:4.56400013;stroke-linecap:butt;stroke-linejoin:miter;marker:none;marker-start:none;marker-mid:none;marker-end:none;stroke-miterlimit:4;stroke-dasharray:none;stroke-dashoffset:0;stroke-opacity:1;visibility:visible;display:inline;overflow:visible;enable-background:accumulate"
         sodipodi:type="arc"
         transform="matrix(2.0471152,0,0,2.0471152,-16.725919,-20.010518)" />
      <path
         transform="matrix(1.0504588,0,0,1.0504588,-0.8660978,-2.4668728)"
         d="M 20.96478,17.602501 A 5.051754,5.051754 0 1 1 10.861272,17.602501 A 5.051754,5.051754 0 1 1 20.96478,17.602501 z"
         sodipodi:ry="5.051754"
         sodipodi:rx="5.051754"
         sodipodi:cy="17.602501"
         sodipodi:cx="15.913026"
         id="path5996"
         style="opacity:0.96979867;fill:#1f4579;fill-opacity:1;fill-rule:nonzero;stroke:none;stroke-width:4.56400013;stroke-linecap:butt;stroke-linejoin:miter;marker:none;marker-start:none;marker-mid:none;marker-end:none;stroke-miterlimit:4;stroke-dasharray:none;stroke-dashoffset:0;stroke-opacity:1;visibility:visible;display:inline;overflow:visible;enable-background:accumulate"
         sodipodi:type="arc" />
    </g>
    <g
       id="g5998"
       transform="matrix(0.457567,0,0,0.457567,-0.5972306,-0.8146008)">
      <path
         d="M 20.96478,17.602501 A 5.051754,5.051754 0 1 1 10.861272,17.602501 A 5.051754,5.051754 0 1 1 20.96478,17.602501 z"
         sodipodi:ry="5.051754"
         sodipodi:rx="5.051754"
         sodipodi:cy="17.602501"
         sodipodi:cx="15.913026"
         id="path6000"
         style="opacity:0.96979867;fill:#6896d1;fill-opacity:1;fill-rule:nonzero;stroke:none;stroke-width:3.55908275;stroke-linecap:butt;stroke-linejoin:miter;marker:none;marker-start:none;marker-mid:none;marker-end:none;stroke-miterlimit:4;stroke-dasharray:none;stroke-dashoffset:0;stroke-opacity:1;visibility:visible;display:inline;overflow:visible;enable-background:accumulate"
         sodipodi:type="arc"
         transform="matrix(2.8625,0,0,2.8625,-29.701159,-34.363333)" />
      <path
         transform="matrix(1.9854119,0,0,1.9854119,-15.744034,-18.924388)"
         sodipodi:type="arc"
         style="opacity:0.96979867;fill:#4c7dbc;fill-opacity:1;fill-rule:nonzero;stroke:none;stroke-width:4.56400013;stroke-linecap:butt;stroke-linejoin:miter;marker:none;marker-start:none;marker-mid:none;marker-end:none;stroke-miterlimit:4;stroke-dasharray:none;stroke-dashoffset:0;stroke-opacity:1;visibility:visible;display:inline;overflow:visible;enable-background:accumulate"
         id="path6002"
         sodipodi:cx="15.913026"
         sodipodi:cy="17.602501"
         sodipodi:rx="5.051754"
         sodipodi:ry="5.051754"
         d="M 20.96478,17.602501 A 5.051754,5.051754 0 1 1 10.861272,17.602501 A 5.051754,5.051754 0 1 1 20.96478,17.602501 z" />
      <path
         sodipodi:type="arc"
         style="opacity:0.96979867;fill:#1f4579;fill-opacity:1;fill-rule:nonzero;stroke:none;stroke-width:4.56400013;stroke-linecap:butt;stroke-linejoin:miter;marker:none;marker-start:none;marker-mid:none;marker-end:none;stroke-miterlimit:4;stroke-dasharray:none;stroke-dashoffset:0;stroke-opacity:1;visibility:visible;display:inline;overflow:visible;enable-background:accumulate"
         id="path6006"
         sodipodi:cx="15.913026"
         sodipodi:cy="17.602501"
         sodipodi:rx="5.051754"
         sodipodi:ry="5.051754"
         d="M 20.96478,17.602501 A 5.051754,5.051754 0 1 1 10.861272,17.602501 A 5.051754,5.051754 0 1 1 20.96478,17.602501 z"
         transform="matrix(1.0504588,0,0,1.0504588,-0.8660978,-2.4668728)" />
    </g>
  </g>
</svg>
