<?xml version="1.0" encoding="UTF-8" standalone="no"?>
<!-- Created with Inkscape (http://www.inkscape.org/) -->
<svg
   xmlns:dc="http://purl.org/dc/elements/1.1/"
   xmlns:cc="http://creativecommons.org/ns#"
   xmlns:rdf="http://www.w3.org/1999/02/22-rdf-syntax-ns#"
   xmlns:svg="http://www.w3.org/2000/svg"
   xmlns="http://www.w3.org/2000/svg"
   xmlns:xlink="http://www.w3.org/1999/xlink"
   xmlns:sodipodi="http://sodipodi.sourceforge.net/DTD/sodipodi-0.dtd"
   xmlns:inkscape="http://www.inkscape.org/namespaces/inkscape"
   width="32px"
   height="32px"
   id="svg2429"
   sodipodi:version="0.32"
   inkscape:version="0.46"
   sodipodi:docname="wall.svg"
   inkscape:output_extension="org.inkscape.output.svg.inkscape">
  <defs
     id="defs2431">
    <linearGradient
       id="linearGradient3163">
      <stop
         style="stop-color:#918378;stop-opacity:1"
         offset="0"
         id="stop3165" />
      <stop
         style="stop-color:#040404;stop-opacity:1"
         offset="1"
         id="stop3167" />
    </linearGradient>
    <linearGradient
       inkscape:collect="always"
       xlink:href="#linearGradient3163"
       id="linearGradient3229"
       gradientUnits="userSpaceOnUse"
       gradientTransform="matrix(0.5912883,0,0,0.5912883,-28.245881,-74.471453)"
       x1="52.264145"
       y1="130.34061"
       x2="97.735855"
       y2="175.81232" />
    <linearGradient
       id="linearGradient3238">
      <stop
         style="stop-color:#76e909;stop-opacity:1;"
         offset="0"
         id="stop3240" />
      <stop
         style="stop-color:#3d7904;stop-opacity:1"
         offset="1"
         id="stop3242" />
    </linearGradient>
    <inkscape:perspective
       sodipodi:type="inkscape:persp3d"
       inkscape:vp_x="0 : 16 : 1"
       inkscape:vp_y="0 : 1000 : 0"
       inkscape:vp_z="32 : 16 : 1"
       inkscape:persp3d-origin="16 : 10.666667 : 1"
       id="perspective2437" />
  </defs>
  <sodipodi:namedview
     id="base"
     pagecolor="#ffffff"
     bordercolor="#666666"
     borderopacity="1.0"
     inkscape:pageopacity="0.0"
     inkscape:pageshadow="2"
     inkscape:zoom="5.598901"
     inkscape:cx="20.349145"
     inkscape:cy="26.930497"
     inkscape:current-layer="layer1"
     showgrid="true"
     inkscape:grid-bbox="true"
     inkscape:document-units="px"
     inkscape:window-width="789"
     inkscape:window-height="1008"
     inkscape:window-x="0"
     inkscape:window-y="14" />
  <metadata
     id="metadata2434">
    <rdf:RDF>
      <cc:Work
         rdf:about="">
        <dc:format>image/svg+xml</dc:format>
        <dc:type
           rdf:resource="http://purl.org/dc/dcmitype/StillImage" />
      </cc:Work>
    </rdf:RDF>
  </metadata>
  <g
     id="layer1"
     inkscape:label="Layer 1"
     inkscape:groupmode="layer">
    <rect
       y="0"
       x="0"
       height="32"
       width="32"
       id="rect3275"
       style="fill:#4d4d4d;fill-opacity:1;fill-rule:nonzero;stroke:none;stroke-width:3;stroke-linecap:butt;stroke-linejoin:miter;marker:none;marker-start:none;marker-mid:none;marker-end:none;stroke-miterlimit:4;stroke-dasharray:none;stroke-dashoffset:0;stroke-opacity:1;visibility:visible;display:inline;overflow:visible;enable-background:accumulate" />
    <path
       id="path3894"
       d="M 0.74354896,0.70538494 L 0.74354896,17.988205 L 3.0037639,17.988205 C 4.5483887,17.988205 5.7903289,19.23171 5.7903304,20.778257 L 5.7903304,22.173283 C 5.7903304,23.71984 4.5483823,24.96334 3.0037639,24.963335 L 0.74354896,24.963335 L 0.74354896,31.256451 L 4.0874287,31.256451 C 4.6231376,29.676607 6.1007887,28.543907 7.8647744,28.543902 L 17.880933,28.543902 C 19.645629,28.543902 21.123114,29.67561 21.658278,31.256451 L 31.256451,31.256451 L 31.256451,25.009836 L 24.336478,25.009836 C 22.791863,25.009836 21.549911,23.766336 21.549911,22.219784 L 21.549911,20.824758 C 21.549911,19.374868 22.648478,18.177155 24.057821,18.034707 C 24.151777,18.025207 24.239942,18.034707 24.336478,18.034707 L 31.256451,18.034707 L 31.256451,0.70538494 L 21.766644,0.70538494 C 21.834909,0.99060511 21.890492,1.2839697 21.890492,1.5889013 L 21.890492,3.5884384 C 21.890492,5.8090665 20.098787,7.6030128 17.880933,7.6030128 L 7.8647744,7.6030128 C 5.6469147,7.6030128 3.8706972,5.8090715 3.8706957,3.5884384 L 3.8706957,1.5889013 C 3.8706957,1.285433 3.9024433,0.9901686 3.9635813,0.70538494 L 0.74354896,0.70538494 z M 13.035403,11.199079 L 15.156289,11.199079 C 16.550875,11.199079 17.67968,12.313796 17.67968,13.710126 L 17.67968,19.925741 C 17.67968,21.322067 16.550875,22.436788 15.156289,22.436788 L 13.035403,22.436788 C 11.640822,22.436788 10.512012,21.322072 10.512012,19.925741 L 10.512012,13.710126 C 10.512012,12.313801 11.640817,11.199079 13.035403,11.199079 z"
       style="fill:#999999;stroke:#000000;stroke-width:1.48709786;stroke-miterlimit:4;stroke-dasharray:none;stroke-opacity:1" />
  </g>
</svg>
